<svg id="Capa_1" data-name="Capa 1" xmlns="http://www.w3.org/2000/svg" viewBox="0 0 1080 1080"><defs><style>.cls-1,.cls-2{fill:#da7c0f;}.cls-2{font-size:45.06px;font-family:Aileron-Light, Aileron;font-weight:300;letter-spacing:-0.06em;}.cls-3{fill:none;stroke:#da7c0f;stroke-miterlimit:10;stroke-width:2.82px;}</style></defs><title>Isotipo SBG</title><path class="cls-1" d="M569,253.65h0l-.34,0c-19.85-.1-36.49-4.21-52.1-12.77q-6-3.3-12-6.45a332,332,0,0,1,128.83,4.44c-21.74,9.73-44.52,14.86-64.34,14.79Z"/><path class="cls-1" d="M738.18,457.39A180.45,180.45,0,0,1,849.1,405.14q-7.54-14.14-16.39-27.45a209.24,209.24,0,0,0-115.2,58.87l-.06.05a1.09,1.09,0,0,1-.1.11,209.59,209.59,0,0,0-50,80.08,24.43,24.43,0,1,1-46.2-15.89,258.14,258.14,0,0,1,61.66-98.73s0,0,.07-.05A1.92,1.92,0,0,1,683,402a258.78,258.78,0,0,1,115.88-67,334.43,334.43,0,0,0-24.13-23.35,286.43,286.43,0,0,0-56.47,26c-45.44,27.19-97.42,43.08-149.74,43.12-38.82,0-77.87-8.9-113.53-28.64a441.31,441.31,0,0,0-111.33-43.13,332.7,332.7,0,0,0-25.78,24.46c192.48,36.25,338,205.12,338.06,408.1a102.6,102.6,0,1,1-205.2,0c-.08-58.4-23.33-110.17-61.58-148.62-38.39-38.19-90.16-61.44-148.57-61.51a24.27,24.27,0,0,1-11.48-2.88c-1,10.44-1.52,21-1.52,31.7,0,1.42,0,2.84.05,4.26a24.25,24.25,0,0,1,13-3.76A180.82,180.82,0,0,1,421.45,741.49a131.93,131.93,0,0,0,263.86,0c0-.27,0-.54,0-.82V585.13A180.2,180.2,0,0,1,738.18,457.39ZM608.49,455.7a15,15,0,0,1-24.92,2.65q-11.79-14.24-24.85-27.61c-1.93-2-3.89-3.94-5.85-5.88-5.64-5.56-1.86-15.29,6-15q4.77.16,9.55.17a300.09,300.09,0,0,0,52.91-4.82c7.91-1.43,13.71,7.37,9.07,13.93A284.24,284.24,0,0,0,608.49,455.7Z"/><path class="cls-1" d="M568.57,331.83c-31.44,0-62-7.12-89.89-22.55a491.84,491.84,0,0,0-83.4-36.47A328.38,328.38,0,0,1,432,254.94a519.54,519.54,0,0,1,60.91,28.69c23,12.71,48.45,18.77,75.07,18.86l.63,0H569c36.38-.08,74.8-11.45,109.16-32q8.76-5.25,17.84-10a330.67,330.67,0,0,1,32.08,17,334.79,334.79,0,0,0-34.86,18.18C654.7,318.75,610.86,331.86,568.57,331.83Z"/><path class="cls-1" d="M607.15,741.49a53.77,53.77,0,1,1-107.53,0,259,259,0,0,0-259-259h0a23.86,23.86,0,0,0-3.9.34q3.63-15.09,8.59-29.61A288.28,288.28,0,0,1,529,741.49a24.43,24.43,0,0,0,48.85,0c0-177.63-137.35-323.14-311.63-336.2q7.65-14.35,16.64-27.85C465.36,398.36,607.12,553.32,607.15,741.49Z"/><path class="cls-1" d="M294.41,741.54c0,6.24.24,12.43.68,18.56a329.51,329.51,0,0,1-41.2-70.72,54,54,0,0,1,24.94,14.25A53.24,53.24,0,0,1,294.41,741.54Z"/><path class="cls-1" d="M334,648.24a131.29,131.29,0,0,1,38.57,93.27A180,180,0,0,0,415.29,858a330.47,330.47,0,0,1-54.76-33.12,208.65,208.65,0,0,1-17.26-83.35,102.6,102.6,0,0,0-102.6-102.66,23.83,23.83,0,0,0-3.5.28q-3.81-15.52-6.13-31.59a24.42,24.42,0,0,0,9.61,2A131.4,131.4,0,0,1,334,648.24Z"/><path class="cls-1" d="M866.13,560.71a24.42,24.42,0,0,0-24.42,24.42V728.35a331,331,0,0,1-31.21,44,259.2,259.2,0,0,0,1.85-30.82h0V585.18a53.72,53.72,0,0,1,53.75-53.81h0a24.35,24.35,0,0,0,19.38-9.61,334,334,0,0,1,2.24,38.43c0,4.37-.11,8.71-.28,13A24.42,24.42,0,0,0,866.13,560.71Z"/><path class="cls-1" d="M689.42,727.94a23,23,0,0,1,2.45-3.1,24.46,24.46,0,0,0-2.45,3.11Z"/><path class="cls-1" d="M866,482.52A102.56,102.56,0,0,0,763.51,585.18V741.49h0A208.77,208.77,0,0,1,742,834a329.77,329.77,0,0,1-56.26,30.46,180.25,180.25,0,0,0,48.41-123V585.15a131.94,131.94,0,0,1,132-132,24.3,24.3,0,0,0,3.74-.32,326.78,326.78,0,0,1,9.6,33.65,24.25,24.25,0,0,0-13.36-4Z"/><text class="cls-2" transform="translate(810.47 856.06)">R</text><circle class="cls-3" cx="824.01" cy="840.17" r="29.93"/></svg>