<svg id="Capa_1" data-name="Capa 1" xmlns="http://www.w3.org/2000/svg" viewBox="0 0 1080 1080"><defs><style>.cls-1{font-size:45.06px;font-family:Aileron-Light, Aileron;font-weight:300;letter-spacing:-0.06em;}.cls-2{fill:none;stroke:#000;stroke-miterlimit:10;stroke-width:2.82px;}</style></defs><title>Isotipo SBG</title><path d="M551.4,241.89h0l-.34,0c-19.85-.1-36.49-4.21-52.09-12.77q-6-3.3-12-6.45a332.2,332.2,0,0,1,128.83,4.43c-21.75,9.74-44.53,14.86-64.34,14.8Z"/><path d="M720.61,445.63a180.54,180.54,0,0,1,110.92-52.26q-7.54-14.14-16.39-27.44A209.08,209.08,0,0,0,700,424.8l-.07.05-.09.11a209.65,209.65,0,0,0-50,80.07,24.43,24.43,0,1,1-46.2-15.88,258.38,258.38,0,0,1,61.66-98.73.15.15,0,0,1,.07-.05c0-.05.08-.12.13-.17a258.78,258.78,0,0,1,115.88-67,332.23,332.23,0,0,0-24.12-23.35,286.39,286.39,0,0,0-56.47,26C655.3,353,603.32,368.88,551,368.91c-38.81,0-77.86-8.89-113.52-28.63a441.45,441.45,0,0,0-111.33-43.13,329.13,329.13,0,0,0-25.78,24.46c192.47,36.24,338,205.12,338,408.1a102.6,102.6,0,1,1-205.2,0c-.08-58.39-23.32-110.16-61.58-148.61-38.38-38.19-90.15-61.44-148.56-61.52a24.31,24.31,0,0,1-11.49-2.87c-1,10.44-1.52,21-1.52,31.7,0,1.42,0,2.84.06,4.25a24.32,24.32,0,0,1,13-3.75A180.8,180.8,0,0,1,403.88,729.73a131.94,131.94,0,0,0,263.87,0c0-.27,0-.54,0-.81V573.37A180.19,180.19,0,0,1,720.61,445.63Zm-129.69-1.69A15,15,0,0,1,566,446.59Q554.21,432.36,541.15,419c-1.93-2-3.88-3.94-5.85-5.89-5.63-5.55-1.85-15.28,6.06-15q4.75.17,9.54.17a301.06,301.06,0,0,0,52.92-4.82c7.91-1.43,13.7,7.37,9.06,13.93A286.54,286.54,0,0,0,590.92,443.94Z"/><path d="M551,320.06c-31.43,0-62-7.11-89.88-22.54a491.39,491.39,0,0,0-83.4-36.47,328.44,328.44,0,0,1,36.71-17.88,520.31,520.31,0,0,1,60.9,28.7c23,12.71,48.45,18.77,75.07,18.86h1c36.37-.07,74.79-11.44,109.15-32q8.76-5.25,17.84-10a326.29,326.29,0,0,1,32.08,17,336.5,336.5,0,0,0-34.85,18.17C637.14,307,593.29,320.1,551,320.06Z"/><path d="M589.58,729.72a53.76,53.76,0,1,1-107.52,0,259,259,0,0,0-258.95-259h0a23.86,23.86,0,0,0-3.9.34q3.61-15.09,8.59-29.61A288.29,288.29,0,0,1,511.41,729.72a24.42,24.42,0,1,0,48.84,0c0-177.62-137.34-323.14-311.62-336.19q7.63-14.37,16.63-27.86C447.79,386.59,589.56,541.56,589.58,729.72Z"/><path d="M276.84,729.77q0,9.38.68,18.57a329.47,329.47,0,0,1-41.19-70.72,53.92,53.92,0,0,1,24.93,14.24A53.23,53.23,0,0,1,276.84,729.77Z"/><path d="M316.45,636.48A131.29,131.29,0,0,1,355,729.75a180,180,0,0,0,42.69,116.49A329.93,329.93,0,0,1,343,813.12a208.79,208.79,0,0,1-17.26-83.35A102.6,102.6,0,0,0,223.1,627.11a25,25,0,0,0-3.49.28q-3.81-15.51-6.14-31.58a24.43,24.43,0,0,0,9.62,2A131.38,131.38,0,0,1,316.45,636.48Z"/><path d="M848.57,549a24.42,24.42,0,0,0-24.43,24.42V716.58a330.39,330.39,0,0,1-31.2,44,263.48,263.48,0,0,0,1.85-30.82V573.42a53.7,53.7,0,0,1,53.75-53.81v0a24.35,24.35,0,0,0,19.38-9.6,334,334,0,0,1,2.24,38.43c0,4.37-.12,8.71-.28,13A24.43,24.43,0,0,0,848.57,549Z"/><path d="M671.85,716.18a23,23,0,0,1,2.45-3.1,25.31,25.31,0,0,0-2.44,3.11Z"/><path d="M848.42,470.75A102.56,102.56,0,0,0,746,573.42V729.74a208.64,208.64,0,0,1-21.5,92.49,329.31,329.31,0,0,1-56.25,30.46,180.2,180.2,0,0,0,48.4-123V573.39a131.94,131.94,0,0,1,132-132,24.43,24.43,0,0,0,3.75-.32,326,326,0,0,1,9.59,33.65,24.25,24.25,0,0,0-13.35-4Z"/><text class="cls-1" transform="translate(792.91 844.3)">R</text><circle class="cls-2" cx="806.45" cy="828.4" r="29.93"/></svg>